<svg id="圖層_1" data-name="圖層 1" xmlns="http://www.w3.org/2000/svg" viewBox="0 0 93.04 53.63"><defs><style>.cls-1{fill:none;stroke:#95c6c6;stroke-miterlimit:10;stroke-width:2px;}.cls-2{font-size:15.77px;fill:#a1d8e4;}.cls-2,.cls-3{font-family:851MkPOP;}.cls-3{font-size:15.97px;fill:#231815;}</style></defs><path class="cls-1" d="M73.85,47.53c-7.5,4.68-17.86,7.58-29.31,7.58C21.68,55.11,3.15,43.55,3.15,29.3S21.68,3.48,44.54,3.48,85.93,15,85.93,29.3c0,5-2.26,9.64-6.19,13.58" transform="translate(-2.15 -2.48)"/><path class="cls-1" d="M73.85,47.53c4.33,3.77,12,4.21,19.24.86l.2-.09c.48-.22.95-.46,1.42-.72" transform="translate(-2.15 -2.48)"/><path class="cls-1" d="M79.74,42.88c3.51,4.89,9,7.19,13.35,5.51l.2-.09A5.35,5.35,0,0,0,94,48" transform="translate(-2.15 -2.48)"/><text class="cls-2" transform="translate(11.98 31.52)">最新公告</text><text class="cls-3" transform="translate(10.74 31.52)">最新公告</text></svg>